<?xml version="1.0" standalone="no"?>
<!DOCTYPE svg PUBLIC "-//W3C//DTD SVG 20010904//EN"
 "http://www.w3.org/TR/2001/REC-SVG-20010904/DTD/svg10.dtd">
<svg version="1.0" xmlns="http://www.w3.org/2000/svg"
 width="2000.000000pt" height="2000.000000pt" viewBox="0 0 2000.000000 2000.000000"
 preserveAspectRatio="xMidYMid meet">
<metadata>
Created by potrace 1.14, written by Peter Selinger 2001-2017
</metadata>
<g transform="translate(0.000000,2000.000000) scale(0.100000,-0.100000)"
fill="#000000" stroke="none">
<path d="M9445 19989 c-2130 -119 -4140 -902 -5795 -2258 -450 -369 -957 -873
-1334 -1325 -1220 -1464 -1999 -3243 -2235 -5101 -64 -498 -76 -710 -76 -1300
0 -513 5 -646 41 -995 217 -2158 1107 -4149 2570 -5750 290 -318 709 -714
1034 -981 1567 -1284 3456 -2056 5460 -2233 557 -49 1223 -49 1780 0 1650 145
3219 693 4615 1609 1001 658 1921 1543 2630 2530 1039 1447 1677 3166 1830
4935 36 424 47 1028 25 1416 -130 2280 -973 4346 -2475 6069 -183 210 -687
714 -895 896 -682 596 -1363 1055 -2149 1449 -1231 617 -2546 964 -3941 1040
-210 11 -875 11 -1085 -1z m-38 -4191 c-7 -50 -5 -92 11 -198 42 -269 159
-545 361 -850 176 -267 409 -528 986 -1106 559 -559 548 -549 1895 -1833 428
-408 826 -799 953 -936 292 -315 578 -839 685 -1255 35 -135 80 -459 67 -480
-4 -7 -11 -72 -16 -144 -24 -409 -121 -697 -348 -1041 -133 -200 -367 -466
-613 -695 l-163 -151 -12 123 c-39 390 -260 836 -672 1358 -310 393 -643 727
-1276 1280 -1194 1044 -1966 1788 -2354 2269 -397 492 -621 963 -722 1516 -31
173 -31 456 0 605 23 114 66 240 114 335 98 197 487 674 814 996 135 134 282
269 294 269 3 0 1 -28 -4 -62z m3282 11 c293 -82 508 -301 592 -604 29 -105
31 -287 5 -390 -74 -297 -280 -524 -556 -613 -547 -177 -1101 221 -1103 793
-2 417 305 777 713 836 89 13 264 2 349 -22z m-5813 -2637 c1 -321 174 -730
486 -1147 224 -300 904 -996 1923 -1971 116 -110 417 -398 670 -639 1001 -955
1192 -1149 1324 -1345 269 -399 438 -767 511 -1115 5 -22 16 -102 24 -179 18
-149 11 -330 -19 -551 -61 -441 -263 -819 -668 -1250 -118 -126 -417 -417
-434 -422 -4 -2 -9 34 -11 80 -13 408 -317 991 -820 1576 -292 338 -577 617
-1062 1042 -823 719 -1291 1149 -1761 1619 -623 622 -887 952 -1095 1370 -181
365 -275 678 -307 1025 -28 303 31 598 163 826 101 173 386 525 669 828 84 90
394 381 405 381 1 0 1 -57 2 -128z m989 -7112 c276 -40 530 -234 643 -492 70
-160 87 -370 44 -540 -149 -588 -844 -829 -1329 -462 -173 132 -275 306 -314
538 -18 104 -19 129 -9 205 22 162 58 264 132 378 183 280 497 420 833 373z"/>
</g>
</svg>
